<svg id="Layer_1" data-name="Layer 1" xmlns="http://www.w3.org/2000/svg" viewBox="0 0 258.23 40"><defs><style>.cls-1{fill:#fff;}.cls-2{fill:#c3d82e;}</style></defs><path class="cls-1" d="M186.18,25c-6.86,0-11.17.05-16.05.45l-5.5,39.1c5.56.4,10.26.45,19.11.45,9.75,0,14-1.92,15.08-9.74.91-6.46-1.07-10.32-7.25-10.83l.05-.34c5.45-.45,7.32-3.06,8.06-8.44C200.75,27.38,196.56,25,186.18,25Zm.34,26.86c-.57,3.85-1.53,4.64-5.16,4.64h-3.57L179,48h4.59C186.41,48,187,48.68,186.52,51.86Zm1.42-15.36c-.51,3.4-1.25,4.08-4.14,4.08H180l1-7.08h4.76C187.77,33.5,188.28,34.23,187.94,36.5Zm16.55-2.61-2.83,20.23c-.8,6.18,2.32,10.66,8.79,10.66,6.12,0,13,0,18.53,0l.86-9.36H216.23c-1.64,0-2.32-.74-2.1-2.21l.63-4.53H229l1-8.16H215.89l.51-3.57c.23-1.7,1-2.27,2.89-2.27H232.9l1.36-9.24c-5.36-.11-12.87-.17-19.73-.17C208.75,25.22,205.23,28.62,204.49,33.89Zm32.38-8.44-1.31,9.18h10.78l-4.2,29.92h12.31l4.19-29.92h10.84l1.3-9.18Z" transform="translate(-12.55 -25)"/><path class="cls-2" d="M37.56,25l-8.5,25.21a27.63,27.63,0,0,0-1.31,4.88H26.28c0-1.65.11-3.4,0-5.1L24.92,25H12.55L17,60.58a3.88,3.88,0,0,0,3.91,3.52H31.61A4.4,4.4,0,0,0,35.92,61L50.49,25Zm8.9,39.1H58.71L64.21,25H52ZM90.69,25,82.18,50.21a28.5,28.5,0,0,0-1.3,4.88H79.41c0-1.65.11-3.4,0-5.1L78.05,25H65.68l4.43,35.58A3.88,3.88,0,0,0,74,64.1H84.74A4.4,4.4,0,0,0,89.05,61l14.57-36Zm33.74,0H113.31a4.38,4.38,0,0,0-4.3,2.94L93.92,64.1h12.76l3.06-8.28H120.4l.68,8.28h12.31l-5-35.7A3.92,3.92,0,0,0,124.43,25ZM113.09,46.87l3.17-8.56a25.18,25.18,0,0,0,1.14-4.25H119a27.8,27.8,0,0,0,.05,4.37l.68,8.44ZM168,25H134.12l-1.3,9.18h10.77L139.4,64.1h12.3l4.2-29.92h10.83Z" transform="translate(-12.55 -25)"/></svg>